# Blender v2.81 (sub 16) OBJ File: 'Boss.blend'
# www.blender.org
mtllib Boss.mtl
o Cube_Cube.001
v -0.004016 -1.389269 -0.386402
v -0.004016 -0.671514 -4.621847
v -0.004016 0.000000 -6.300248
v -0.004016 -1.212901 -2.504125
v 0.790221 0.369255 -5.775213
v 3.757311 -0.290440 -3.833874
v 2.662131 0.000000 1.095424
v 2.657372 -0.374336 -2.504125
v 2.740016 0.333333 -3.283765
v 2.266752 0.540414 -2.504125
v 1.341832 0.796604 -1.267311
v 0.704686 1.093431 1.995812
v 2.006900 0.540414 0.312063
v -0.004016 0.333333 -6.509055
v 1.125469 0.000000 4.825007
v 0.636096 0.934336 3.898094
v 2.213460 -0.676951 -4.633567
v 1.326678 -0.893494 -2.504125
v 0.978830 -0.893494 -0.374682
v 0.538616 -0.900983 4.490263
v -0.004016 -0.475677 -6.680429
v 6.665103 -0.000000 -0.198894
v 6.552395 -0.000000 -2.594918
v 5.894625 0.333333 -1.945208
v 5.953568 0.333333 -0.763597
v 0.000000 1.078430 0.905716
v -0.004016 0.893407 -2.483567
v -0.004016 0.708697 -3.519692
v 3.195141 -1.180423 -6.689080
v 1.992025 -0.388712 -2.504125
v 0.979248 -0.392456 4.823050
v 1.975319 -0.388712 -0.469668
v 2.152887 -0.694785 -0.885081
v 2.915516 -0.696432 0.155384
v 1.736044 -0.897239 1.591979
v 2.178329 -0.390584 1.795544
v 1.784970 0.333333 -4.441412
v 2.491771 1.099118 -4.284109
v 2.798366 1.326044 -3.132702
v 1.354398 0.000000 -6.383127
v 1.388600 0.333333 -6.020180
v 1.037491 -0.536398 -6.393189
v 2.222480 -0.406782 -4.951142
v 1.287595 0.351294 -5.108313
v 2.653352 -1.063362 -7.413191
v 1.446612 -0.341429 -6.322126
v 2.729956 -0.416655 -4.269324
v 2.155369 -0.096813 -5.268717
v 2.956340 -0.193626 -4.154306
v 2.287191 -0.329482 4.081098
v 0.000000 0.012549 6.371476
v -0.790221 0.369255 -5.775213
v -3.757311 -0.290440 -3.833874
v -2.662131 0.000000 1.095424
v -2.657372 -0.374336 -2.504125
v -2.740016 0.333333 -3.283765
v -2.266752 0.540414 -2.504125
v -1.341832 0.796604 -1.267311
v -0.704686 1.093431 1.995812
v -2.006900 0.540414 0.312063
v 0.000000 0.532073 6.451445
v 0.000000 1.447300 3.114790
v 0.000000 -1.068803 5.178084
v -1.125469 0.000000 4.825007
v -0.636096 0.934336 3.898094
v -2.213460 -0.676951 -4.633567
v -1.326678 -0.893494 -2.504125
v -0.978830 -0.893494 -0.374682
v -0.538616 -0.900983 4.490263
v 0.000000 -0.764223 5.850543
v -6.665103 -0.000000 -0.198894
v -6.552395 -0.000000 -2.594918
v -5.894625 0.333333 -1.945208
v -5.953568 0.333333 -0.763597
v 0.000000 -0.487239 6.290949
v -3.195141 -1.180423 -6.689080
v -1.992025 -0.388712 -2.504125
v -0.979248 -0.392456 4.823050
v -1.975319 -0.388712 -0.469668
v -2.152887 -0.694785 -0.885081
v -2.915516 -0.696432 0.155384
v -1.736044 -0.897239 1.591979
v -2.178329 -0.390584 1.795544
v 0.000000 1.248367 4.127172
v -1.784970 0.333333 -4.441412
v -2.491771 1.099118 -4.284109
v -2.798366 1.326044 -3.132702
v -1.354398 0.000000 -6.383127
v -1.388600 0.333333 -6.020180
v -1.037491 -0.536398 -6.393189
v -2.222480 -0.406782 -4.951142
v -1.287595 0.351294 -5.108313
v -2.653352 -1.063362 -7.413191
v -1.446612 -0.341429 -6.322126
v -2.729956 -0.416655 -4.269324
v -2.155369 -0.096813 -5.268717
v -2.956340 -0.193626 -4.154306
v -2.287191 -0.329482 4.081098
vt 0.041458 0.971668
vt 0.041458 0.955641
vt 0.045702 0.957894
vt 0.486435 0.497250
vt 0.490471 0.498855
vt 0.490592 0.501406
vt 0.486516 0.501406
vt 0.903246 0.650650
vt 0.902747 0.658621
vt 0.900135 0.658486
vt 0.900649 0.644288
vt 0.325043 0.065390
vt 0.338008 0.064602
vt 0.326498 0.068357
vt 0.314559 0.658241
vt 0.319013 0.656579
vt 0.316501 0.668217
vt 0.314185 0.662047
vt 0.793613 0.494394
vt 0.789854 0.501226
vt 0.789854 0.480649
vt 0.494501 0.499339
vt 0.498277 0.498000
vt 0.503823 0.500291
vt 0.505123 0.501399
vt 0.494535 0.501406
vt 0.551476 0.223340
vt 0.551476 0.242902
vt 0.547794 0.224896
vt 0.957260 0.140639
vt 0.957421 0.143943
vt 0.956364 0.144517
vt 0.956364 0.141060
vt 0.904467 0.919922
vt 0.904934 0.923502
vt 0.902671 0.924882
vt 0.903474 0.919922
vt 0.737475 0.266371
vt 0.724186 0.268683
vt 0.723748 0.265693
vt 0.737520 0.263143
vt 0.897919 0.367595
vt 0.900774 0.366487
vt 0.899909 0.376026
vt 0.743309 0.264821
vt 0.741185 0.266901
vt 0.744866 0.263295
vt 0.795726 0.485222
vt 0.797026 0.487392
vt 0.795931 0.492913
vt 0.483158 0.499501
vt 0.715025 0.071617
vt 0.718920 0.069788
vt 0.716524 0.080181
vt 0.713831 0.076740
vt 0.325043 0.055399
vt 0.338598 0.060464
vt 0.884770 0.658109
vt 0.884770 0.648714
vt 0.895545 0.663491
vt 0.699223 0.062561
vt 0.703321 0.059461
vt 0.699223 0.081078
vt 0.703689 0.084845
vt 0.533062 0.091132
vt 0.531410 0.080750
vt 0.535535 0.085284
vt 0.528896 0.086339
vt 0.528896 0.064820
vt 0.197119 0.207553
vt 0.201938 0.207553
vt 0.210663 0.214830
vt 0.206557 0.215172
vt 0.351382 0.943607
vt 0.350805 0.941838
vt 0.353686 0.937873
vt 0.354953 0.938417
vt 0.894063 0.386381
vt 0.900003 0.376101
vt 0.187690 0.769896
vt 0.188885 0.780808
vt 0.184821 0.773388
vt 0.670579 0.947314
vt 0.671714 0.937971
vt 0.675359 0.937956
vt 0.675404 0.946800
vt 0.437500 0.932594
vt 0.468750 0.898891
vt 0.437500 0.932594
vt 0.077953 0.598542
vt 0.077953 0.604188
vt 0.074184 0.603555
vt 0.069443 0.601079
vt 0.069113 0.604152
vt 0.076429 0.606135
vt 0.046867 0.954113
vt 0.317806 0.640377
vt 0.198035 0.497933
vt 0.196852 0.494084
vt 0.198771 0.496327
vt 0.200532 0.497760
vt 0.065808 0.083201
vt 0.067049 0.087202
vt 0.063198 0.083132
vt 0.205436 0.494138
vt 0.344212 0.361660
vt 0.352974 0.369190
vt 0.333680 0.365191
vt 0.078027 0.360567
vt 0.078214 0.358896
vt 0.081867 0.368506
vt 0.076507 0.355937
vt 0.079052 0.353021
vt 0.081867 0.350244
vt 0.075918 0.363156
vt 0.188885 0.754348
vt 0.069113 0.606225
vt 0.082197 0.606141
vt 0.072680 0.606867
vt 0.205340 0.501927
vt 0.202293 0.499192
vt 0.071760 0.090115
vt 0.072323 0.091094
vt 0.072640 0.093761
vt 0.071124 0.093760
vt 0.070064 0.093760
vt 0.069891 0.090188
vt 0.070972 0.090502
vt 0.798112 0.479242
vt 0.675404 0.928573
vt 0.665753 0.928729
vt 0.665741 0.919728
vt 0.670251 0.920975
vt 0.899511 0.665404
vt 0.900774 0.391326
vt 0.069982 0.087276
vt 0.070490 0.086249
vt 0.594992 0.384926
vt 0.594286 0.380831
vt 0.600990 0.373119
vt 0.596362 0.383685
vt 0.082197 0.611191
vt 0.050477 0.958420
vt 0.486435 0.505547
vt 0.490471 0.503943
vt 0.884762 0.659042
vt 0.882165 0.665404
vt 0.881651 0.651206
vt 0.884263 0.651071
vt 0.325043 0.071329
vt 0.326498 0.068362
vt 0.338008 0.072117
vt 0.309726 0.650352
vt 0.309352 0.646547
vt 0.311669 0.640377
vt 0.314180 0.652015
vt 0.785350 0.486075
vt 0.787463 0.495247
vt 0.781591 0.499820
vt 0.494501 0.503460
vt 0.503824 0.502506
vt 0.498277 0.504797
vt 0.547788 0.242902
vt 0.544105 0.241346
vt 0.547788 0.223340
vt 0.956202 0.144517
vt 0.955306 0.144096
vt 0.955306 0.140639
vt 0.956363 0.141214
vt 0.902671 0.914961
vt 0.904934 0.916341
vt 0.741638 0.270621
vt 0.744866 0.270644
vt 0.742031 0.284360
vt 0.739051 0.283859
vt 0.907569 0.373623
vt 0.907569 0.382915
vt 0.907470 0.366487
vt 0.787668 0.487556
vt 0.788763 0.493076
vt 0.483158 0.503295
vt 0.695320 0.072690
vt 0.694125 0.067567
vt 0.696819 0.064126
vt 0.699214 0.074519
vt 0.338598 0.076255
vt 0.325043 0.081320
vt 0.866286 0.660978
vt 0.866286 0.651582
vt 0.877061 0.646201
vt 0.679518 0.081746
vt 0.683615 0.084845
vt 0.679518 0.063229
vt 0.683984 0.059461
vt 0.206557 0.199963
vt 0.210663 0.200304
vt 0.345438 0.941519
vt 0.346141 0.940332
vt 0.907549 0.379281
vt 0.906942 0.388419
vt 0.191759 0.765260
vt 0.188889 0.761768
vt 0.192954 0.754348
vt 0.661012 0.947328
vt 0.656186 0.946827
vt 0.656208 0.937983
vt 0.659853 0.937987
vt 0.078372 0.598535
vt 0.076413 0.593568
vt 0.078372 0.591246
vt 0.069113 0.595039
vt 0.074591 0.593291
vt 0.069350 0.591575
vt 0.312974 0.668217
vt 0.198082 0.490272
vt 0.200577 0.490476
vt 0.198799 0.491887
vt 0.065807 0.104301
vt 0.063198 0.104369
vt 0.067047 0.100300
vt 0.333680 0.358160
vt 0.352974 0.354157
vt 0.072074 0.358183
vt 0.075914 0.350244
vt 0.072261 0.359854
vt 0.070554 0.362813
vt 0.075914 0.368506
vt 0.073099 0.365729
vt 0.069965 0.355594
vt 0.192954 0.780808
vt 0.077959 0.603508
vt 0.081526 0.602865
vt 0.091044 0.603591
vt 0.205436 0.486368
vt 0.202356 0.489065
vt 0.071757 0.097386
vt 0.072321 0.096408
vt 0.070969 0.096999
vt 0.069888 0.097313
vt 0.789849 0.501226
vt 0.656137 0.928600
vt 0.661269 0.920988
vt 0.881027 0.644288
vt 0.900779 0.376968
vt 0.070488 0.101251
vt 0.069979 0.100225
vt 0.605317 0.373119
vt 0.605832 0.374439
vt 0.606140 0.394725
vt 0.600994 0.377309
vt 0.091044 0.598542
vt 0.781591 0.479242
vn 0.5003 0.8274 0.2550
vn 0.0865 -0.9837 -0.1575
vn 0.2150 -0.9744 0.0652
vn 0.0874 0.9747 -0.2059
vn 0.3479 0.9375 0.0056
vn 0.6917 0.6362 -0.3416
vn 0.2774 -0.9603 0.0292
vn 0.5564 0.8261 0.0892
vn 0.6366 0.7412 0.2131
vn 0.7845 0.4874 0.3834
vn 0.6544 -0.7086 0.2640
vn 0.3324 -0.9431 -0.0119
vn 0.8736 0.3581 0.3295
vn 0.6297 -0.7076 0.3205
vn 0.6290 -0.6952 0.3479
vn 0.7199 -0.4240 -0.5496
vn -0.0029 -0.9970 -0.0777
vn 0.4366 0.8994 -0.0209
vn 0.0548 0.9985 0.0028
vn 0.0579 -0.9964 0.0611
vn 0.0960 -0.9952 0.0166
vn 0.1502 0.8922 0.4260
vn 0.1606 0.8686 -0.4687
vn -0.2276 0.9604 -0.1604
vn 0.0631 0.9965 -0.0545
vn 0.1504 0.9847 -0.0880
vn 0.8082 -0.1842 0.5593
vn 0.3968 0.9018 -0.1711
vn 0.5801 -0.8129 -0.0527
vn 0.5206 -0.8526 0.0456
vn -0.3923 0.6524 -0.6484
vn 0.1176 -0.9912 -0.0612
vn 0.6047 -0.6886 0.4002
vn 0.4998 0.7854 -0.3651
vn 0.4845 0.8584 0.1687
vn 0.4859 0.8694 0.0902
vn 0.0397 0.9980 -0.0494
vn 0.1803 0.9723 -0.1488
vn 0.0701 0.9898 -0.1243
vn 0.1159 0.9874 -0.1078
vn -0.4164 0.9066 -0.0678
vn 0.6783 -0.5193 -0.5199
vn -0.3609 0.9316 -0.0442
vn 0.7944 -0.0534 0.6051
vn 0.7416 -0.6611 -0.1138
vn 0.7896 -0.6069 -0.0907
vn 0.3281 0.9442 -0.0286
vn 0.8392 -0.4197 0.3458
vn 0.2502 0.9675 -0.0378
vn 0.0181 0.9998 -0.0045
vn 0.1688 0.4773 -0.8624
vn 0.1426 0.2160 -0.9659
vn 0.3793 0.0899 -0.9209
vn 0.5958 -0.7853 0.1683
vn -0.0319 -0.9950 -0.0947
vn -0.0598 -0.1912 -0.9797
vn 0.0758 -0.9968 0.0270
vn -0.2100 0.6923 -0.6904
vn 0.8363 -0.1079 -0.5376
vn 0.4232 -0.9048 0.0465
vn -0.2735 -0.9577 0.0898
vn 0.0615 -0.9978 0.0237
vn 0.4915 -0.1874 0.8505
vn -0.5003 0.8274 0.2550
vn -0.0869 -0.9837 -0.1574
vn -0.2150 -0.9744 0.0652
vn -0.0874 0.9747 -0.2059
vn -0.3479 0.9375 0.0056
vn -0.5497 0.7681 -0.3284
vn -0.2783 -0.9600 0.0294
vn -0.5564 0.8261 0.0892
vn -0.6366 0.7412 0.2131
vn -0.7845 0.4874 0.3834
vn -0.6544 -0.7086 0.2640
vn -0.3344 -0.9424 -0.0117
vn -0.8736 0.3581 0.3295
vn -0.6297 -0.7076 0.3205
vn -0.6290 -0.6952 0.3479
vn -0.7199 -0.4240 -0.5496
vn 0.0029 -0.9970 -0.0777
vn -0.4366 0.8994 -0.0209
vn -0.0548 0.9985 0.0028
vn -0.0579 -0.9964 0.0611
vn -0.0960 -0.9952 0.0166
vn -0.1502 0.8922 0.4260
vn -0.1606 0.8686 -0.4687
vn 0.2276 0.9604 -0.1604
vn -0.0628 0.9965 -0.0543
vn -0.1511 0.9846 -0.0879
vn -0.8082 -0.1842 0.5593
vn -0.3968 0.9018 -0.1711
vn -0.5801 -0.8129 -0.0527
vn -0.5206 -0.8526 0.0456
vn 0.3923 0.6524 -0.6484
vn -0.1176 -0.9912 -0.0612
vn -0.6047 -0.6886 0.4002
vn -0.4998 0.7854 -0.3651
vn -0.4845 0.8584 0.1687
vn -0.4859 0.8694 0.0902
vn -0.0398 0.9980 -0.0492
vn -0.1803 0.9723 -0.1488
vn -0.0708 0.9897 -0.1243
vn -0.1168 0.9873 -0.1079
vn 0.4164 0.9066 -0.0678
vn -0.6783 -0.5193 -0.5199
vn 0.3609 0.9316 -0.0442
vn -0.7944 -0.0534 0.6051
vn -0.7416 -0.6611 -0.1138
vn -0.7896 -0.6069 -0.0907
vn -0.3281 0.9442 -0.0286
vn -0.8392 -0.4197 0.3458
vn -0.2502 0.9675 -0.0378
vn -0.0181 0.9998 -0.0045
vn -0.1699 0.4767 -0.8625
vn -0.1434 0.2160 -0.9658
vn -0.3793 0.0899 -0.9209
vn -0.5958 -0.7853 0.1683
vn 0.0322 -0.9950 -0.0947
vn 0.0601 -0.1913 -0.9797
vn -0.0758 -0.9968 0.0270
vn 0.2100 0.6923 -0.6904
vn -0.8363 -0.1079 -0.5376
vn -0.4232 -0.9048 0.0465
vn 0.2735 -0.9577 0.0898
vn -0.0615 -0.9978 0.0237
vn -0.4915 -0.1874 0.8505
vn 0.7397 0.4595 -0.4917
vn 0.2808 0.8504 -0.4450
vn 0.5497 0.7681 -0.3284
vn -0.7397 0.4595 -0.4917
vn -0.2808 0.8504 -0.4450
vn -0.6917 0.6362 -0.3416
usemtl Material.001
s off
f 61/1/1 16/2/1 84/3/1
f 17/4/2 18/5/2 4/6/2 2/7/2
f 32/8/3 30/9/3 8/10/3 7/11/3
f 10/12/4 24/13/4 9/14/4
f 12/15/5 13/16/5 10/17/5 11/18/5
f 48/19/6 41/20/6 9/21/6
f 19/22/7 35/23/7 20/24/7 63/25/7 1/26/7
f 16/27/8 12/28/8 62/29/8
f 13/30/9 16/31/9 15/32/9 7/33/9
f 51/34/10 15/35/10 16/36/10 61/37/10
f 20/38/11 35/39/11 36/40/11 31/41/11
f 1/26/12 4/6/12 18/5/12 19/22/12
f 43/42/13 17/43/13 29/44/13
f 20/38/14 70/45/14 63/46/14
f 75/47/15 70/45/15 20/38/15 31/41/15
f 49/48/16 47/49/16 43/50/16 48/19/16
f 2/7/17 42/51/17 17/4/17
f 25/52/18 22/53/18 23/54/18 24/55/18
f 10/12/19 13/56/19 25/57/19 24/13/19
f 7/11/20 8/10/20 23/58/20 22/59/20
f 8/10/21 6/60/21 23/58/21
f 13/61/22 7/62/22 22/53/22 25/52/22
f 9/63/23 24/55/23 23/54/23 6/64/23
f 62/65/24 26/66/24 59/67/24
f 12/68/25 27/69/25 26/66/25
f 28/70/26 27/71/26 12/72/26 11/73/26
f 51/74/27 75/75/27 31/76/27 15/77/27
f 46/78/28 43/42/28 29/44/28 45/79/28
f 36/80/29 32/81/29 7/82/29
f 19/83/30 18/84/30 30/85/30 32/86/30
f 19/87/31 32/88/31 33/89/31
f 19/90/32 33/91/32 34/92/32 35/93/32
f 36/94/33 35/93/33 34/92/33
f 32/95/34 34/92/34 33/91/34
f 16/2/35 62/96/35 84/3/35
f 16/97/36 13/16/36 12/15/36
f 41/98/37 14/99/37 5/100/37 44/101/37
f 9/102/38 37/103/38 10/104/38
f 5/100/39 14/99/39 28/105/39
f 28/106/40 11/107/40 5/108/40
f 39/109/41 38/110/41 11/111/41
f 37/112/42 44/113/42 5/114/42 38/110/42
f 5/114/43 11/111/43 38/110/43
f 11/111/44 10/115/44 39/109/44
f 37/112/45 38/110/45 10/115/45
f 10/115/46 38/110/46 39/109/46
f 32/95/47 36/94/47 34/92/47
f 7/82/48 15/116/48 36/80/48
f 36/117/49 15/118/49 50/119/49
f 9/120/50 41/98/50 44/101/50 37/121/50
f 46/122/51 42/123/51 21/124/51 3/125/51
f 3/125/52 14/126/52 41/127/52 40/128/52
f 47/49/53 49/48/53 6/129/53
f 17/130/54 30/85/54 18/84/54
f 2/131/55 21/132/55 42/133/55
f 46/122/56 3/125/56 40/128/56
f 6/60/57 8/10/57 30/9/57 47/134/57
f 42/135/58 46/78/58 45/79/58
f 40/128/59 48/136/59 43/137/59 46/122/59
f 43/138/60 47/139/60 30/140/60 17/141/60
f 17/43/61 42/135/61 45/79/61 29/44/61
f 31/142/62 36/117/62 50/119/62
f 15/118/63 31/142/63 50/119/63
f 61/1/64 84/3/64 65/143/64
f 66/144/65 2/7/65 4/6/65 67/145/65
f 79/146/66 54/147/66 55/148/66 77/149/66
f 57/150/67 56/151/67 73/152/67
f 59/153/68 58/154/68 57/155/68 60/156/68
f 96/157/69 97/158/69 56/159/69
f 68/160/70 1/26/70 63/25/70 69/161/70 82/162/70
f 65/163/71 62/164/71 59/165/71
f 60/166/72 54/167/72 64/168/72 65/169/72
f 51/34/73 61/37/73 65/170/73 64/171/73
f 69/172/74 78/173/74 83/174/74 82/175/74
f 1/26/75 68/160/75 67/145/75 4/6/75
f 91/176/76 76/177/76 66/178/76
f 69/172/77 63/46/77 70/45/77
f 75/47/78 78/173/78 69/172/78 70/45/78
f 97/158/79 96/157/79 91/179/79 95/180/79
f 2/7/80 66/144/80 90/181/80
f 74/182/81 73/183/81 72/184/81 71/185/81
f 57/150/82 73/152/82 74/186/82 60/187/82
f 54/147/83 71/188/83 72/189/83 55/148/83
f 55/148/84 72/189/84 53/190/84
f 60/191/85 74/182/85 71/185/85 54/192/85
f 56/193/86 53/194/86 72/184/86 73/183/86
f 12/68/87 26/66/87 62/65/87
f 59/67/88 26/66/88 27/69/88
f 28/70/89 58/195/89 59/196/89 27/71/89
f 51/74/90 64/197/90 78/198/90 75/75/90
f 94/199/91 93/200/91 76/177/91 91/176/91
f 83/201/92 54/202/92 79/203/92
f 68/204/93 79/205/93 77/206/93 67/207/93
f 68/208/94 80/209/94 79/210/94
f 68/208/95 82/211/95 81/212/95 80/209/95
f 83/213/96 81/212/96 82/211/96
f 79/210/97 80/209/97 81/212/97
f 65/143/98 84/3/98 62/96/98
f 65/214/99 59/153/99 60/156/99
f 89/215/100 92/216/100 52/217/100 14/99/100
f 56/218/101 57/219/101 85/220/101
f 52/217/102 28/105/102 14/99/102
f 28/106/103 52/221/103 58/222/103
f 87/223/104 58/224/104 86/225/104
f 85/226/105 86/225/105 52/227/105 92/228/105
f 52/227/106 86/225/106 58/224/106
f 58/224/107 87/223/107 57/229/107
f 85/226/108 57/229/108 86/225/108
f 57/229/109 87/223/109 86/225/109
f 79/210/110 81/212/110 83/213/110
f 54/202/111 83/201/111 64/230/111
f 83/231/112 98/232/112 64/233/112
f 56/234/113 85/235/113 92/216/113 89/215/113
f 94/236/114 3/125/114 21/124/114 90/237/114
f 3/125/115 88/238/115 89/239/115 14/126/115
f 95/180/116 53/240/116 97/158/116
f 66/241/117 67/207/117 77/206/117
f 2/131/118 90/242/118 21/132/118
f 94/236/119 88/238/119 3/125/119
f 53/190/120 95/243/120 77/149/120 55/148/120
f 90/244/121 93/200/121 94/199/121
f 88/238/122 94/236/122 91/245/122 96/246/122
f 91/247/123 66/248/123 77/249/123 95/250/123
f 66/178/124 76/177/124 93/200/124 90/244/124
f 78/251/125 98/232/125 83/231/125
f 64/233/126 98/232/126 78/251/126
f 48/136/127 40/128/127 41/127/127
f 9/21/128 6/129/128 49/48/128
f 49/48/129 48/19/129 9/21/129
f 89/239/130 88/238/130 96/246/130
f 97/158/131 53/240/131 56/159/131
f 89/252/132 96/157/132 56/159/132
