# Blender v2.81 (sub 16) OBJ File: 'Missile.blend'
# www.blender.org
mtllib Missile.mtl
o 円
v 0.000000 1.843154 0.000000
v 0.000000 -0.277086 -0.363469
v 0.000000 1.365983 -0.173803
v -0.150518 1.365983 -0.086902
v -0.314774 -0.277086 -0.181735
v -0.150518 1.365983 0.086902
v -0.314774 -0.277086 0.181735
v 0.000000 1.365983 0.173803
v 0.000000 -0.277086 0.363469
v 0.150518 1.365983 0.086902
v 0.314774 -0.277086 0.181735
v 0.150518 1.365983 -0.086902
v 0.314774 -0.277086 -0.181735
v 0.000000 -0.970064 -0.270637
v -0.246217 -0.970064 -0.114813
v -0.234378 -0.970064 0.135318
v 0.023678 -0.970064 0.270637
v 0.234378 -0.970064 0.135318
v 0.222539 -0.970064 -0.155824
v -0.222539 -0.970064 -0.155824
v -0.023678 -0.970064 0.270637
v 0.246217 -0.970064 -0.114813
v -0.570035 -0.995265 -0.329110
v 0.000000 -0.995265 0.658220
v 0.570035 -0.995265 -0.329110
v 0.000000 -1.263717 0.000000
v 0.247681 0.622043 -0.173428
v 0.260857 0.622043 0.150606
v 0.026353 0.622043 0.301212
v -0.260857 0.622043 0.150606
v -0.274034 0.622043 -0.127784
v 0.000000 0.622043 -0.301212
v 0.274034 0.622043 -0.127784
v -0.026353 0.622043 0.301212
v -0.247681 0.622043 -0.173428
v -0.478790 0.631773 -0.276429
v 0.000000 0.631773 0.552859
v 0.478790 0.631773 -0.276429
vt 0.496217 0.494761
vt 0.505291 0.500000
vt 0.496217 0.505239
vt 0.514365 0.494761
vt 0.505291 0.489522
vt 0.505291 0.510478
vt 0.514365 0.505239
vt 0.057792 0.055006
vt 0.053583 0.053970
vt 0.057723 0.042447
vt 0.063476 0.045161
vt 0.078979 0.933729
vt 0.077443 0.923875
vt 0.077443 0.942819
vt 0.083668 0.924927
vt 0.052785 0.054430
vt 0.051578 0.058594
vt 0.040210 0.058594
vt 0.040736 0.052254
vt 0.052785 0.062757
vt 0.040736 0.064933
vt 0.061976 0.939662
vt 0.052516 0.942819
vt 0.071195 0.939662
vt 0.052516 0.936505
vt 0.053583 0.063218
vt 0.057792 0.062181
vt 0.063476 0.072027
vt 0.057723 0.074741
vt 0.060794 0.059054
vt 0.068703 0.068401
vt 0.072742 0.932965
vt 0.077432 0.941767
vt 0.071206 0.923875
vt 0.071206 0.942819
vt 0.068703 0.048787
vt 0.060794 0.058133
vt 0.055721 0.058594
vt 0.048067 0.904837
vt 0.047963 0.908406
vt 0.046957 0.911305
vt 0.048798 0.911359
vt 0.947053 0.919197
vt 0.951473 0.907004
vt 0.955997 0.909063
vt 0.949827 0.919749
vt 0.089973 0.521409
vt 0.088285 0.492572
vt 0.089973 0.492523
vt 0.088281 0.521409
vt 0.086593 0.492572
vt 0.088281 0.492523
vt 0.086593 0.522258
vt 0.115467 0.521413
vt 0.115467 0.523102
vt 0.902991 0.036743
vt 0.934844 0.018326
vt 0.931014 0.055703
vt 0.929979 0.056075
vt 0.929836 0.056274
vt 0.929935 0.057316
vt 0.895661 0.072708
vt 0.946145 0.921875
vt 0.933806 0.921875
vt 0.934284 0.916928
vt 0.930647 0.058096
vt 0.927460 0.091049
vt 0.947053 0.924553
vt 0.934284 0.926822
vt 0.930900 0.058119
vt 0.931861 0.057583
vt 0.962316 0.079501
vt 0.949827 0.924001
vt 0.955997 0.934687
vt 0.951473 0.936746
vt 0.932052 0.056515
vt 0.962316 0.042768
vt 0.951692 0.921875
vt 0.960042 0.931799
vt 0.960042 0.911951
vt 0.931951 0.056291
vt 0.050651 0.936297
vt 0.049816 0.939250
vt 0.048810 0.936351
vt 0.049920 0.942819
vt 0.051669 0.939250
vt 0.051773 0.942819
vt 0.050663 0.936351
vt 0.052504 0.936297
vn 0.4768 0.3008 0.8259
vn 0.4768 0.3008 -0.8259
vn -0.9537 0.3008 0.0000
vn 0.9537 0.3008 0.0000
vn -0.4768 0.3008 0.8259
vn -0.4768 0.3008 -0.8259
vn -0.4805 -0.1066 -0.8705
vn 0.4446 0.0257 -0.8953
vn -0.5531 0.0257 0.8327
vn -0.9941 -0.1066 0.0192
vn -0.5137 -0.1066 0.8513
vn -0.9977 0.0257 0.0626
vn 0.9977 0.0257 0.0626
vn 0.5137 -0.1066 0.8513
vn 0.9941 -0.1066 0.0192
vn 0.5531 0.0257 0.8327
vn -0.4446 0.0257 -0.8953
vn 0.4804 -0.1066 -0.8705
vn -0.0562 -0.9979 0.0324
vn 0.0562 -0.9979 0.0324
vn 0.0000 -0.9979 -0.0649
vn 0.0000 -0.6777 0.7353
vn -0.4181 -0.6336 0.6509
vn 0.4181 -0.6336 0.6509
vn 0.7728 -0.6336 0.0366
vn 0.6368 -0.6777 -0.3677
vn 0.3547 -0.6336 -0.6875
vn -0.3547 -0.6336 -0.6875
vn -0.6368 -0.6777 -0.3677
vn -0.7728 -0.6336 0.0366
vn -0.5850 0.0527 0.8093
vn 0.4084 0.0527 -0.9113
vn -0.0335 -0.9993 -0.0193
vn 0.4688 0.1556 -0.8695
vn 0.8640 0.0691 -0.4988
vn 0.0000 0.0691 0.9976
vn -0.8640 0.0691 -0.4988
vn 0.4815 0.0523 -0.8749
vn 0.9984 0.0523 0.0205
vn 0.9874 0.1556 0.0288
vn 0.5170 0.0523 0.8544
vn 0.5186 0.1556 0.8407
vn -0.5170 0.0523 0.8544
vn -0.5186 0.1556 0.8407
vn -0.9984 0.0523 0.0205
vn -0.9874 0.1556 0.0288
vn -0.4688 0.1556 -0.8695
vn -0.4815 0.0523 -0.8749
vn 0.0000 -0.9993 0.0386
vn -0.9934 0.0527 0.1020
vn 0.9934 0.0527 0.1020
vn 0.5850 0.0527 0.8093
vn -0.4084 0.0527 -0.9113
vn 0.0335 -0.9993 -0.0193
usemtl マテリアル
s off
f 10/1/1 1/2/1 8/3/1
f 3/4/2 1/2/2 12/5/2
f 6/6/3 1/2/3 4/7/3
f 12/5/4 1/2/4 10/1/4
f 8/3/5 1/2/5 6/6/5
f 4/7/6 1/2/6 3/4/6
f 14/8/7 20/9/7 5/10/7 2/11/7
f 5/12/8 20/13/8 23/14/8
f 23/14/9 15/15/9 5/12/9
f 15/16/10 16/17/10 7/18/10 5/19/10
f 16/17/11 21/20/11 9/21/11 7/18/11
f 9/22/12 21/23/12 24/24/12
f 24/24/13 17/25/13 9/22/13
f 17/26/14 18/27/14 11/28/14 9/29/14
f 18/27/15 22/30/15 13/31/15 11/28/15
f 13/32/16 22/33/16 25/34/16
f 25/34/17 19/35/17 13/32/17
f 13/36/18 19/37/18 14/8/18 2/11/18
f 25/34/19 22/33/19 19/35/19
f 23/14/20 20/13/20 15/15/20
f 24/24/21 21/23/21 17/25/21
f 17/26/22 21/20/22 26/38/22
f 16/17/23 26/38/23 21/20/23
f 17/26/24 26/38/24 18/27/24
f 18/27/25 26/38/25 22/30/25
f 19/37/26 22/30/26 26/38/26
f 19/37/27 26/38/27 14/8/27
f 14/8/28 26/38/28 20/9/28
f 15/16/29 20/9/29 26/38/29
f 15/16/30 26/38/30 16/17/30
f 4/39/31 36/40/31 31/41/31
f 35/42/32 36/40/32 4/39/32
f 31/41/33 36/40/33 35/42/33
f 12/43/34 27/44/34 32/45/34 3/46/34
f 13/47/35 27/48/35 33/49/35
f 9/50/36 29/51/36 34/52/36
f 5/53/37 31/54/37 35/55/37
f 13/56/38 2/57/38 32/58/38 27/59/38
f 13/56/39 33/60/39 28/61/39 11/62/39
f 12/43/40 10/63/40 28/64/40 33/65/40
f 11/62/41 28/61/41 29/66/41 9/67/41
f 10/63/42 8/68/42 29/69/42 28/64/42
f 9/67/43 34/70/43 30/71/43 7/72/43
f 8/68/44 6/73/44 30/74/44 34/75/44
f 7/72/45 30/71/45 31/76/45 5/77/45
f 6/73/46 4/78/46 31/79/46 30/74/46
f 4/78/47 3/46/47 32/45/47 35/80/47
f 5/77/48 35/81/48 32/58/48 2/57/48
f 29/82/49 37/83/49 34/84/49
f 34/84/50 37/83/50 8/85/50
f 8/85/51 37/83/51 29/82/51
f 38/86/52 12/87/52 33/88/52
f 12/87/53 38/86/53 27/89/53
f 27/89/54 38/86/54 33/88/54
