# Blender v2.80 (sub 75) OBJ File: 'Missile.blend'
# www.blender.org
mtllib Missile.mtl
o 円
v 0.000000 0.000000 -0.000000
v 0.000000 6.081231 -0.000000
v 0.000000 3.293490 -0.487027
v 0.000000 4.169836 -0.429185
v 0.000000 5.097484 -0.277751
v -0.344380 3.293490 -0.344380
v -0.196400 5.097484 -0.196400
v -0.303479 4.169836 -0.303479
v -0.487027 3.293490 0.000000
v -0.277751 5.097484 0.000000
v -0.429185 4.169836 0.000000
v -0.344380 3.293490 0.344380
v -0.196400 5.097484 0.196400
v -0.303479 4.169836 0.303479
v 0.000000 3.293490 0.487027
v 0.000000 5.097484 0.277751
v 0.000000 4.169836 0.429185
v 0.344380 3.293490 0.344380
v 0.196400 5.097484 0.196400
v 0.303479 4.169836 0.303479
v 0.487027 3.293490 -0.000000
v 0.277751 5.097484 -0.000000
v 0.429185 4.169836 -0.000000
v 0.344380 3.293490 -0.344380
v 0.196400 5.097484 -0.196400
v 0.303479 4.169836 -0.303479
v 0.000000 0.186261 -0.382460
v 0.000000 0.441981 -0.487027
v -0.344380 0.441981 -0.344380
v -0.270440 0.186261 -0.270440
v -0.487027 0.441981 0.000000
v -0.382460 0.186261 0.000000
v -0.344380 0.441981 0.344380
v -0.270440 0.186261 0.270440
v 0.000000 0.441981 0.487027
v 0.000000 0.186261 0.382460
v 0.344380 0.441981 0.344380
v 0.270440 0.186261 0.270440
v 0.487027 0.441981 -0.000000
v 0.382460 0.186261 -0.000000
v 0.344380 0.441981 -0.344380
v 0.270440 0.186261 -0.270440
v 0.415704 3.293490 0.172190
v 0.326450 0.186261 0.135220
v 0.926043 0.441981 0.383579
v 0.172190 3.293490 -0.415703
v 0.135220 0.186261 -0.326450
v 0.383579 0.441981 -0.926043
v -0.415703 3.293490 -0.172190
v -0.326450 0.186261 -0.135220
v -0.926043 0.441981 -0.383579
v -0.172190 3.293490 0.415703
v -0.135220 0.186261 0.326450
v -0.383579 0.441981 0.926043
vt 0.035398 0.035740
vt 0.035156 0.035156
vt 0.034914 0.035740
vt 0.035156 0.035744
vt 0.035740 0.034915
vt 0.035740 0.035398
vt 0.035744 0.035156
vt 0.034914 0.034573
vt 0.035398 0.034573
vt 0.035156 0.034568
vt 0.034573 0.035398
vt 0.034573 0.034915
vt 0.034568 0.035156
vt 0.950248 0.045870
vt 0.948219 0.048336
vt 0.950248 0.059036
vt 0.955075 0.045870
vt 0.953045 0.048336
vt 0.955075 0.059036
vt 0.959908 0.055962
vt 0.962699 0.054410
vt 0.964728 0.043710
vt 0.955081 0.055962
vt 0.957872 0.054410
vt 0.959901 0.043710
vt 0.947463 0.044349
vt 0.948713 0.043710
vt 0.952289 0.044349
vt 0.953540 0.043710
vt 0.961943 0.058397
vt 0.960546 0.058534
vt 0.957116 0.058397
vt 0.955719 0.058534
vt 0.963193 0.059036
vt 0.964728 0.056876
vt 0.035671 0.034207
vt 0.039002 0.030876
vt 0.038784 0.030658
vt 0.958366 0.059036
vt 0.959901 0.056876
vt 0.036106 0.035671
vt 0.039437 0.039002
vt 0.039655 0.038784
vt 0.946065 0.044212
vt 0.945428 0.046784
vt 0.034642 0.036106
vt 0.031311 0.039437
vt 0.031529 0.039655
vt 0.950892 0.044212
vt 0.950255 0.046784
vt 0.034206 0.034642
vt 0.030876 0.031311
vt 0.030658 0.031529
vt 0.035671 0.036106
vt 0.038784 0.039655
vt 0.039002 0.039437
vt 0.034206 0.035671
vt 0.030658 0.038784
vt 0.030876 0.039002
vt 0.034642 0.034207
vt 0.031529 0.030658
vt 0.031311 0.030876
vt 0.036106 0.034642
vt 0.039655 0.031529
vt 0.039437 0.031311
vt 0.950817 0.954112
vt 0.952510 0.949894
vt 0.940724 0.945696
vt 0.940493 0.945551
vt 0.947144 0.957143
vt 0.940369 0.945305
vt 0.936167 0.957129
vt 0.940524 0.945059
vt 0.928984 0.951788
vt 0.931982 0.955428
vt 0.940767 0.944919
vt 0.928973 0.940745
vt 0.940997 0.945066
vt 0.934301 0.933500
vt 0.930654 0.936529
vt 0.941124 0.945315
vt 0.945309 0.933482
vt 0.940969 0.945559
vt 0.952510 0.938830
vt 0.949505 0.935183
vt 0.063375 0.924580
vt 0.063696 0.924514
vt 0.063467 0.924159
vt 0.058837 0.935863
vt 0.068505 0.935873
vt 0.063097 0.924396
vt 0.052092 0.929163
vt 0.063028 0.924061
vt 0.051983 0.919819
vt 0.063260 0.923833
vt 0.057894 0.911937
vt 0.063552 0.923771
vt 0.068241 0.911783
vt 0.063809 0.923939
vt 0.075473 0.918935
vt 0.063872 0.924247
vt 0.075473 0.928935
vn -0.4308 -0.8846 -0.1785
vn 0.1785 -0.8846 -0.4308
vn 0.4308 -0.8846 0.1785
vn -0.1785 -0.8846 0.4308
vn 0.0671 0.0618 -0.9958
vn -0.9958 0.0618 -0.0671
vn -0.0671 0.0618 0.9958
vn 0.9958 0.0618 0.0671
vn -0.1152 -0.6337 -0.7649
vn -0.7649 -0.6337 0.1152
vn 0.1152 -0.6337 0.7649
vn 0.7649 -0.6337 -0.1152
vn 0.6223 -0.6337 -0.4594
vn 0.9239 0.0000 0.3827
vn -0.4594 -0.6337 -0.6223
vn 0.3827 0.0000 -0.9239
vn -0.6223 -0.6337 0.4594
vn -0.9239 0.0000 -0.3827
vn 0.4594 -0.6337 0.6223
vn -0.3827 0.0000 0.9239
vn 0.6567 0.0618 -0.7516
vn -0.7516 0.0618 -0.6567
vn -0.6567 0.0618 0.7516
vn 0.7516 0.0618 0.6567
vn -0.9222 0.0609 -0.3820
vn -0.3820 0.0609 -0.9222
vn 0.3820 0.0609 -0.9222
vn 0.9222 0.0609 -0.3820
vn 0.9222 0.0609 0.3820
vn 0.3820 0.0609 0.9222
vn -0.3820 0.0609 0.9222
vn -0.9222 0.0609 0.3820
vn -0.8940 0.2524 0.3703
vn -0.9135 0.1491 0.3784
vn -0.8940 0.2524 -0.3703
vn -0.9135 0.1491 -0.3784
vn -0.3703 0.2524 -0.8940
vn -0.3784 0.1491 -0.9135
vn 0.3703 0.2524 -0.8940
vn 0.3784 0.1491 -0.9135
vn 0.8940 0.2524 -0.3703
vn 0.9135 0.1491 -0.3784
vn 0.8940 0.2524 0.3703
vn 0.9135 0.1491 0.3784
vn 0.3703 0.2524 0.8940
vn 0.3784 0.1491 0.9135
vn -0.3703 0.2524 0.8940
vn -0.3784 0.1491 0.9135
vn -0.1785 -0.8846 -0.4308
vn -0.3580 -0.3534 -0.8643
vn -0.3827 0.0000 -0.9239
vn -0.4308 -0.8846 0.1785
vn -0.8643 -0.3534 0.3580
vn -0.9239 0.0000 0.3827
vn 0.1785 -0.8846 0.4308
vn 0.3580 -0.3534 0.8643
vn 0.3827 0.0000 0.9239
vn 0.4308 -0.8846 -0.1785
vn 0.8643 -0.3534 -0.3580
vn 0.9239 0.0000 -0.3827
usemtl マテリアル
s off
f 30/1/1 1/2/1 32/3/1 50/4/1
f 42/5/2 1/2/2 27/6/2 47/7/2
f 38/8/3 1/2/3 40/9/3 44/10/3
f 34/11/4 1/2/4 36/12/4 53/13/4
f 29/14/5 51/15/5 49/16/5
f 33/17/6 54/18/6 52/19/6
f 37/20/7 45/21/7 43/22/7
f 41/23/8 48/24/8 46/25/8
f 50/26/9 51/15/9 29/14/9 30/27/9
f 53/28/10 54/18/10 33/17/10 34/29/10
f 44/30/11 45/21/11 37/20/11 38/31/11
f 47/32/12 48/24/12 41/23/12 42/33/12
f 40/34/13 39/35/13 45/21/13 44/30/13
f 39/36/14 21/37/14 43/38/14
f 27/39/15 28/40/15 48/24/15 47/32/15
f 28/41/16 3/42/16 46/43/16
f 32/44/17 31/45/17 51/15/17 50/26/17
f 31/46/18 9/47/18 49/48/18
f 36/49/19 35/50/19 54/18/19 53/28/19
f 35/51/20 15/52/20 52/53/20
f 29/54/18 49/55/18 6/56/18
f 33/57/20 52/58/20 12/59/20
f 37/60/14 43/61/14 18/62/14
f 41/63/16 46/64/16 24/65/16
f 39/35/21 43/22/21 45/21/21
f 28/40/22 46/25/22 48/24/22
f 31/45/23 49/16/23 51/15/23
f 35/50/24 52/19/24 54/18/24
f 49/66/25 9/67/25 11/68/25 8/69/25 6/70/25
f 8/69/26 4/71/26 3/72/26 6/70/26
f 4/71/27 26/73/27 24/74/27 46/75/27 3/72/27
f 26/73/28 23/76/28 21/77/28 24/74/28
f 23/76/29 20/78/29 18/79/29 43/80/29 21/77/29
f 20/78/30 17/81/30 15/82/30 18/79/30
f 17/81/31 14/83/31 12/84/31 52/85/31 15/82/31
f 14/83/32 11/68/32 9/67/32 12/84/32
f 10/86/33 13/87/33 2/88/33
f 13/87/34 10/86/34 11/89/34 14/90/34
f 7/91/35 10/86/35 2/88/35
f 10/86/36 7/91/36 8/92/36 11/89/36
f 5/93/37 7/91/37 2/88/37
f 7/91/38 5/93/38 4/94/38 8/92/38
f 5/93/39 2/88/39 25/95/39
f 25/95/40 26/96/40 4/94/40 5/93/40
f 22/97/41 25/95/41 2/88/41
f 25/95/42 22/97/42 23/98/42 26/96/42
f 19/99/43 22/97/43 2/88/43
f 22/97/44 19/99/44 20/100/44 23/98/44
f 16/101/45 19/99/45 2/88/45
f 19/99/46 16/101/46 17/102/46 20/100/46
f 13/87/47 16/101/47 2/88/47
f 16/101/48 13/87/48 14/90/48 17/102/48
f 27/6/49 1/2/49 30/1/49
f 30/1/50 29/54/50 28/41/50 27/6/50
f 29/54/51 6/56/51 3/42/51 28/41/51
f 34/11/52 32/3/52 1/2/52
f 34/11/53 33/57/53 31/46/53 32/3/53
f 33/57/54 12/59/54 9/47/54 31/46/54
f 38/8/55 36/12/55 1/2/55
f 38/8/56 37/60/56 35/51/56 36/12/56
f 37/60/57 18/62/57 15/52/57 35/51/57
f 42/5/58 40/9/58 1/2/58
f 42/5/59 41/63/59 39/36/59 40/9/59
f 41/63/60 24/65/60 21/37/60 39/36/60
